<svg version="1.2" xmlns="http://www.w3.org/2000/svg" viewBox="0 0 334 118" width="334" height="118">
	<title>home_top_card-svg</title>
	<defs>
		<radialGradient id="g1" cx="0" cy="0" r="1" gradientUnits="userSpaceOnUse" gradientTransform="matrix(58.499,57.799,-58.439,59.146,307.981,40.641)">
			<stop offset="0" stop-color="#ffffff"/>
			<stop offset="1" stop-color="#1e1e1e" stop-opacity="0"/>
			<stop offset="1" stop-color="#0e0e35" stop-opacity="0"/>
			<stop offset="1" stop-color="#ffffff" stop-opacity="0"/>
		</radialGradient>
	</defs>
	<style>
		.s0 { display: none;fill: #343434 } 
		.s1 { fill: #cacaca } 
		.s2 { opacity: .6;fill: url(#g1) } 
		.s3 { fill: #343434 } 
		.s4 { fill: #000000 } 
	</style>
	<path id="Layer" fill-rule="evenodd" class="s0" d="m23 50v-5.9h6.1v5.9h2.5v-13.9h-2.5v5.7h-6.1v-5.7h-2.5v13.9zm14.2 0.2c1.4 0 2.7-0.6 3.1-1.6l0.2 1.4h2v-5.7c0-2.6-1.6-4-4.1-4-2.5 0-4.2 1.4-4.2 3.4h2c0-1 0.7-1.6 2.1-1.6 1.2 0 1.9 0.5 1.9 1.8v0.2l-2.8 0.2c-2.2 0.2-3.5 1.3-3.5 3 0 1.8 1.3 2.9 3.3 2.9zm0.7-1.7c-1 0-1.6-0.4-1.6-1.3 0-0.7 0.6-1.2 2-1.3l2-0.2v0.5c0 1.4-1 2.3-2.4 2.3zm6.9 5.9h2.3v-5.7c0.6 1 1.8 1.5 3.2 1.5 2.8 0 4.4-2.1 4.4-5 0-3-1.8-4.9-4.4-4.9-1.4 0-2.7 0.7-3.2 1.7l-0.2-1.4h-2.1zm2.3-9c0-1.7 1.1-2.9 2.7-2.9 1.6 0 2.6 1.2 2.6 2.9 0 1.6-1 2.8-2.6 2.8-1.6 0-2.7-1.1-2.7-2.8zm9.4 9h2.4v-5.6c0.5 1 1.8 1.5 3.2 1.5 2.8 0 4.4-2.1 4.4-5 0-3-1.8-4.9-4.4-4.9-1.5 0-2.7 0.6-3.3 1.7l-0.1-1.4h-2.2zm2.4-9.1c0-1.7 1-2.8 2.6-2.8 1.7 0 2.6 1.2 2.6 2.8 0 1.7-0.9 2.9-2.6 2.9-1.6 0-2.6-1.2-2.6-2.9zm10.6-6.5c0.7 0 1.3-0.7 1.3-1.4 0-0.8-0.6-1.4-1.3-1.4-0.8 0-1.5 0.6-1.5 1.4 0 0.7 0.7 1.4 1.5 1.4zm-1.2 11.2h2.3v-9.4h-2.3zm8.9 0.3c2.5 0 4.2-1.2 4.6-3.3h-2.2c-0.2 0.9-1.1 1.4-2.3 1.4q-2.4 0-2.6-2.5h7v-0.7c0-3-1.7-4.8-4.6-4.8-2.7 0-4.6 2-4.6 4.9 0 3 1.9 5 4.7 5zm0-8c1.3 0 2.2 0.8 2.2 2.1h-4.7c0.3-1.4 1.1-2.1 2.5-2.1zm12.3-1.7q-0.6-0.1-1-0.1c-1.3 0-2.2 0.6-2.6 1.5l-0.1-1.3h-2.2v9.3h2.3v-4.5c0-1.8 1.1-2.7 2.7-2.7h0.9zm5.8-2.3h4.1v11.7h2.4v-11.7h4.1v-2.2h-10.6zm14.4 11.6v-5.1c0-1.4 0.9-2.4 2.3-2.4 1.2 0 2 0.7 2 2.3v5.2h2.3v-5.7c0-2.5-1.2-3.9-3.5-3.9-1.4 0-2.5 0.6-3.1 1.5v-6h-2.3v14.1zm11.6 0.3c1.5 0 2.8-0.7 3.2-1.6l0.1 1.3h2.1v-5.7c0-2.6-1.6-3.9-4.1-3.9-2.5 0-4.2 1.3-4.2 3.3h2q0-1.5 2.1-1.5c1.2 0 1.9 0.5 1.9 1.8v0.2l-2.8 0.2c-2.2 0.2-3.5 1.2-3.5 3 0 1.7 1.2 2.9 3.2 2.9zm0.8-1.8c-1 0-1.6-0.4-1.6-1.2 0-0.8 0.5-1.3 2-1.4l1.9-0.1v0.4c0 1.5-0.9 2.3-2.3 2.3zm9.2 1.5v-5c0-1.5 0.9-2.5 2.3-2.5 1.2 0 2 0.7 2 2.3v5.2h2.3v-5.7c0-2.5-1.2-3.9-3.6-3.9-1.3 0-2.4 0.5-3 1.5l-0.2-1.2h-2.1v9.3zm-102.1 26v-2.2h-6.2v-3.7h5.6v-2.1h-5.6v-3.6h6.2v-2.2h-8.6v13.8zm4.5 0h2.3l3.9-9.3h-2.4l-1.7 4.3c-0.4 1-0.7 2-0.9 2.6-0.1-0.5-0.4-1.5-0.8-2.6l-1.6-4.3h-2.5zm11.3 0.2c2.4 0 4.1-1.2 4.5-3.3h-2.1c-0.3 0.9-1.1 1.4-2.4 1.4q-2.3 0-2.6-2.5h7.1v-0.7c0-2.9-1.8-4.8-4.6-4.8-2.8 0-4.7 2-4.7 5 0 2.9 2 4.9 4.8 4.9zm-0.1-8c1.4 0 2.3 0.8 2.3 2.1h-4.7q0.3-2.1 2.4-2.1zm12.3-1.7q-0.5-0.1-1-0.1c-1.3 0-2.2 0.6-2.5 1.6l-0.2-1.4h-2.2v9.4h2.4v-4.6c0-1.8 1-2.7 2.7-2.7h0.8z"/>
	<path id="Layer" fill-rule="evenodd" class="s0" d="m20.1 99h3.8c2 0 3.1-0.9 3.1-2.6 0-1.1-0.5-1.8-1.5-2.2 0.9-0.3 1.4-1.1 1.4-2.1 0-1.6-1.2-2.6-3.1-2.6h-3.7zm3.6-8c0.9 0 1.4 0.4 1.4 1.2 0 0.9-0.5 1.3-1.4 1.3h-2v-2.5zm0.2 4c0.9 0 1.4 0.4 1.4 1.2 0 0.9-0.5 1.3-1.4 1.3h-2.2v-2.5zm5.3-3.7c0.5 0 0.9-0.4 0.9-1 0-0.5-0.4-0.9-0.9-0.9-0.6 0-1 0.4-1 0.9 0 0.6 0.4 1 1 1zm-0.8 7.7h1.6v-6.4h-1.6zm4.8 0v-9.7h-1.6v9.7zm3.3 0v-9.7h-1.6v9.7zm2.5-7.7c0.5 0 0.9-0.5 0.9-1 0-0.5-0.4-0.9-0.9-0.9-0.6 0-1 0.4-1 0.9 0 0.5 0.4 1 1 1zm-0.8 7.7h1.6v-6.4h-1.6zm6.1 0.1c1.7 0 2.8-0.8 3.1-2.2h-1.5c-0.1 0.6-0.7 0.9-1.6 0.9q-1.6 0-1.7-1.7h4.8v-0.5c0-2-1.2-3.3-3.2-3.3-1.8 0-3.2 1.4-3.2 3.4 0 2 1.4 3.4 3.3 3.4zm0-5.5c0.9 0 1.5 0.6 1.5 1.5h-3.2c0.1-1 0.7-1.5 1.7-1.5zm14 5.4v-1.6h-4.2v-2.5h3.8v-1.5h-3.8v-2.4h4.2v-1.5h-5.9v9.5zm2.4-7.8c0.5 0 0.9-0.4 0.9-0.9 0-0.6-0.4-1-0.9-1-0.6 0-1 0.4-1 1 0 0.5 0.4 0.9 1 0.9zm-0.8 7.8h1.6v-6.5h-1.6zm4.8 0v-9.6h-1.6v9.6zm2.5-7.7c0.5 0 0.9-0.4 0.9-0.9 0-0.6-0.4-1-0.9-1-0.6 0-1 0.4-1 1 0 0.5 0.4 0.9 1 0.9zm-0.8 7.7h1.6v-6.4h-1.6zm2.7-1.9c0 1.2 1 2.1 2.6 2.1 1.6 0 2.7-0.8 2.7-2.1 0-1-0.5-1.5-1.6-1.8l-1.2-0.2q-0.8-0.2-0.8-0.8c0-0.4 0.4-0.7 1-0.7 0.6 0 1 0.3 1 0.9h1.5c0-1.3-1-2.1-2.4-2.1-1.5 0-2.6 0.7-2.6 2 0 1 0.6 1.6 1.7 1.8l1.2 0.3c0.5 0.1 0.7 0.4 0.7 0.7 0 0.5-0.4 0.8-1.1 0.8-0.8 0-1.2-0.4-1.2-0.9zm8.1 1.9v-3.5c0-1 0.6-1.7 1.6-1.7 0.8 0 1.3 0.6 1.3 1.6v3.6h1.6v-3.9c0-1.7-0.8-2.7-2.4-2.7-0.9 0-1.7 0.4-2.1 1v-4.1h-1.6v9.7z"/>
	<g id="Clip-Path: Clip-Path">
		<g id="Clip-Path">
			<g id="Layer">
				<path id="Layer" fill-rule="evenodd" class="s1" d="m30 0h274c16.6 0 30 13.4 30 30v58c0 16.6-13.4 30-30 30h-274c-16.6 0-30-13.4-30-30v-58c0-16.6 13.4-30 30-30z"/>
				<path id="Layer" fill-rule="evenodd" class="s2" d="m334.5-61.7c-6.7 6.8-15.1 16-17.8 26.5-0.8 3.3-1.1 6.7-0.6 10.2-0.5 2.5-0.8 5-0.6 7.6q-0.1 0.3-0.2 0.7-0.7 2.8-0.8 5.7-0.5 1.4-0.9 2.7-0.1 0.5-0.2 0.9c-6.1 6.4-12.8 14.6-15.1 23.8-1.4 5.2-1.3 10.8 1.2 16.5 2.5 5.8 7.3 11.6 15.4 17.4 18.7 13.6 36.2 14.3 49.6 14.8q1.9 0.1 3.6 0.2c7 0.3 12.5 0.9 16.3 3.9 3.9 2.9 6.1 8.2 6.2 18h0.6c-0.1-9.8-2.3-15.3-6.4-18.4-4-3.1-9.8-3.7-16.7-4.1q-1.7-0.1-3.6-0.1c-13.4-0.6-30.7-1.2-49.3-14.7-8-5.8-12.7-11.6-15.2-17.2-2.4-5.6-2.5-11-1.2-16.2 2.2-8.7 8.5-16.6 14.4-22.8q-0.2 0.5-0.4 1c-4.1 5.1-7.8 10.9-9.3 17.2-1.4 5.2-1.3 10.8 1.2 16.5 2.5 5.7 7.3 11.6 15.3 17.4 18.8 13.6 36.3 14.3 49.7 14.8q1.9 0.1 3.6 0.2c6.9 0.3 12.5 0.9 16.3 3.9 3.9 2.9 6.1 8.2 6.2 18h0.6c-0.1-9.9-2.3-15.4-6.4-18.4-4-3.1-9.8-3.8-16.7-4.1q-1.7-0.1-3.6-0.1c-13.4-0.6-30.7-1.2-49.3-14.7-8-5.8-12.7-11.6-15.2-17.2-2.4-5.6-2.5-11-1.2-16.2 1.3-5.1 4-9.9 7.2-14.3-1.5 2.7-2.7 5.6-3.4 8.5-1.4 5.3-1.2 10.8 1.2 16.6 2.5 5.7 7.3 11.5 15.4 17.4 18.8 13.5 36.2 14.2 49.6 14.8q1.9 0 3.7 0.1c6.9 0.3 12.4 1 16.3 3.9 3.8 2.9 6 8.2 6.2 18h0.5c-0.1-9.8-2.3-15.3-6.4-18.4-4-3.1-9.7-3.7-16.6-4q-1.8-0.1-3.7-0.2c-13.4-0.5-30.7-1.2-49.3-14.7-8-5.8-12.7-11.5-15.1-17.1-2.4-5.6-2.6-11.1-1.2-16.2 0.6-2.7 1.7-5.3 3-7.8q-0.1 0.4-0.2 0.8c-1.4 5.3-1.3 10.9 1.2 16.6 2.5 5.7 7.3 11.6 15.4 17.4 18.7 13.6 36.2 14.3 49.6 14.8q1.9 0.1 3.6 0.1c7 0.4 12.5 1 16.4 4 3.8 2.9 6 8.2 6.1 18h0.6c-0.1-9.9-2.3-15.4-6.4-18.5-4-3-9.8-3.7-16.7-4q-1.7-0.1-3.6-0.2c-13.4-0.5-30.7-1.2-49.3-14.6-8-5.8-12.7-11.6-15.1-17.2-2.5-5.6-2.6-11-1.3-16.2q0.5-1.9 1.2-3.7c-0.4 4 0.2 8.2 2 12.4 2.5 5.7 7.3 11.6 15.3 17.4 18.8 13.6 36.3 14.3 49.7 14.8q1.9 0.1 3.6 0.1c6.9 0.4 12.5 1 16.3 4 3.9 2.9 6.1 8.2 6.2 18h0.6c-0.1-9.9-2.4-15.4-6.4-18.5-4-3.1-9.8-3.7-16.7-4q-1.7-0.1-3.6-0.2c-13.4-0.5-30.7-1.2-49.3-14.6-8-5.8-12.8-11.6-15.2-17.2-1.9-4.6-2.4-9-1.8-13.3q0.4-0.6 0.8-1.2 0.1-0.1 0.3-0.3 0.4 3.2 1.8 6.5c2.5 5.8 7.3 11.6 15.4 17.4 18.8 13.6 36.2 14.3 49.7 14.8q1.8 0.1 3.6 0.2c6.9 0.3 12.4 1 16.3 3.9 3.8 2.9 6.1 8.2 6.2 18h0.6c-0.1-9.8-2.4-15.3-6.4-18.4-4.1-3.1-9.8-3.7-16.7-4.1q-1.8 0-3.6-0.1c-13.4-0.5-30.7-1.2-49.4-14.7-7.9-5.8-12.7-11.5-15.1-17.1-1-2.4-1.6-4.7-1.9-7q1.1-1.2 2.1-2.4 0.1 0.3 0.2 0.5c2.5 5.7 7.3 11.6 15.4 17.4 18.8 13.6 36.2 14.3 49.6 14.8q1.9 0.1 3.7 0.2c6.9 0.3 12.4 0.9 16.3 3.9 3.8 2.9 6.1 8.2 6.2 18h0.6c-0.2-9.9-2.4-15.4-6.5-18.4-4-3.1-9.7-3.8-16.6-4.1q-1.8-0.1-3.7-0.1c-13.4-0.6-30.7-1.2-49.3-14.7-8-5.8-12.7-11.6-15.1-17.2q-0.2-0.4-0.3-0.7 1.5-1.7 3.1-3.3c2.7 4 6.8 8.1 12.4 12.2 18.8 13.6 36.2 14.2 49.6 14.8q1.9 0 3.7 0.1c6.9 0.3 12.4 1 16.3 3.9 3.8 3 6.1 8.2 6.2 18h0.6c-0.1-9.8-2.4-15.3-6.4-18.4-4.1-3.1-9.8-3.7-16.7-4q-1.8-0.1-3.6-0.2c-13.4-0.5-30.7-1.2-49.4-14.7-5.6-4-9.6-8.1-12.3-12.1l0.2-0.2 0.2-0.2-0.4-0.4q-0.2 0.1-0.4 0.3 0-0.1-0.1-0.2c1.8-1.9 3.6-3.7 5.2-5.4l-0.4-0.4c-1.6 1.7-3.4 3.4-5.1 5.3q-0.3-0.5-0.6-1c3-4 6.4-7.6 9.5-10.6l-0.4-0.4c-3 3-6.4 6.5-9.4 10.4q-0.5-0.9-0.9-1.8c3.7-6.1 8.8-11.5 13.2-16l-0.4-0.3c-4.4 4.3-9.4 9.6-13.1 15.7q-0.5-1.2-0.9-2.4c3.6-8.4 10.4-15.7 16.1-21.4l-0.5-0.4c-5.5 5.5-12.1 12.7-15.8 20.9q-0.4-1.3-0.6-2.7 0.1-0.3 0.2-0.6c2.6-10.3 10.9-19.5 17.6-26.2l-0.4-0.4c-6.6 6.5-14.7 15.5-17.6 25.6-0.2-2.9 0.1-5.7 0.8-8.4 2.6-10.4 10.9-19.5 17.7-26.3zm-20 53.9q-0.1 0.2-0.2 0.5 0.1-0.2 0.2-0.4zm1.7-2.1q0.3-0.5 0.7-0.9-0.2-0.3-0.3-0.7-0.6 1-1.1 1.9 0.3-0.3 0.5-0.5zm4.3-4q-0.9 1-1.9 1.9 0.9-1 1.8-2v0.1zm-0.4-0.7q-0.3-0.5-0.6-1-1.3 1.7-2.4 3.5 0.1 0.4 0.2 0.8 1.4-1.7 2.8-3.3zm-5.7 5.8l-0.1 0.2q0.1-0.3 0.2-0.5 0 0.1 0 0.2zm2-3.5q-0.7 1.2-1.4 2.3 0-0.5 0-1 0.5-1.3 1.1-2.6 0.1 0.7 0.3 1.3zm2.8-3.9q-1.2 1.6-2.3 3.3-0.3-0.8-0.4-1.5 0.8-1.8 1.8-3.5 0.4 0.9 0.9 1.7zm-1.2-2.3q0-0.1-0.1-0.2-0.4-1-0.7-2-0.7 1.6-1.1 3.3 0 1 0.2 2 0.8-1.6 1.7-3.1zm-2.1 4q-0.1-0.7-0.2-1.3-0.3 1.4-0.5 2.8 0.3-0.8 0.7-1.5zm1-7q-0.5 1.1-0.9 2.3 0-2.2 0.4-4.3 0.2 1 0.5 2zm-24.6 41.2c2.7-10.5 11.1-19.7 17.8-26.4l0.5 0.3c-6.8 6.8-15.1 15.9-17.7 26.3-1.3 5.2-1.2 10.6 1.2 16.2 2.4 5.6 7.2 11.4 15.2 17.2 18.6 13.4 35.9 14.1 49.3 14.6q1.9 0.1 3.6 0.2c6.9 0.3 12.7 0.9 16.7 4 4 3.1 6.3 8.6 6.4 18.5h-0.6c-0.1-9.8-2.3-15.1-6.2-18.1-3.8-2.9-9.4-3.5-16.3-3.9q-1.8 0-3.6-0.1c-13.4-0.5-30.9-1.2-49.7-14.8-8-5.8-12.9-11.7-15.3-17.4-2.5-5.7-2.6-11.3-1.3-16.6zm11.4-23.9c-6.7 6.8-15.1 16-17.8 26.5-1.3 5.3-1.2 10.8 1.2 16.6 2.5 5.7 7.3 11.5 15.4 17.4 18.8 13.6 36.2 14.2 49.6 14.8q1.9 0 3.7 0.1c6.9 0.3 12.4 1 16.3 3.9 3.8 3 6.1 8.2 6.2 18l0.6 0.1c-0.1-9.9-2.4-15.4-6.4-18.5-4.1-3.1-9.8-3.7-16.7-4q-1.8-0.1-3.6-0.2c-13.4-0.5-30.7-1.2-49.4-14.7-8-5.7-12.7-11.5-15.1-17.1-2.4-5.6-2.5-11.1-1.2-16.2 2.6-10.4 10.9-19.5 17.6-26.3zm-24.6 28.5c2.7-10.5 11.1-19.8 17.9-26.5l0.4 0.4c-6.8 6.7-15.1 15.9-17.7 26.2-1.3 5.2-1.2 10.6 1.2 16.2 2.5 5.6 7.2 11.4 15.2 17.2 18.6 13.4 35.9 14.1 49.3 14.7q1.9 0 3.6 0.1c6.9 0.3 12.7 1 16.7 4 4.1 3.1 6.3 8.6 6.4 18.5h-0.6c-0.1-9.8-2.3-15.1-6.2-18-3.8-3-9.4-3.6-16.3-3.9q-1.7-0.1-3.6-0.2c-13.4-0.5-30.9-1.2-49.7-14.8-8-5.8-12.8-11.7-15.3-17.4-2.5-5.7-2.6-11.3-1.3-16.5zm10.9-25c-6.8 6.8-15.2 16-17.8 26.5-1.4 5.3-1.3 10.9 1.2 16.6 2.5 5.7 7.3 11.6 15.4 17.4 18.7 13.6 36.2 14.2 49.6 14.8q1.9 0 3.6 0.1c7 0.4 12.5 1 16.4 3.9 3.8 3 6 8.2 6.1 18l0.6 0.1c-0.1-9.9-2.3-15.4-6.4-18.5-4-3.1-9.8-3.7-16.7-4q-1.7-0.1-3.6-0.2c-13.4-0.5-30.7-1.2-49.3-14.6-8-5.8-12.7-11.6-15.2-17.2-2.4-5.6-2.5-11.1-1.2-16.2 2.7-10.4 10.9-19.5 17.7-26.3zm-24.9 27.9c2.7-10.5 11.1-19.7 17.8-26.5l0.5 0.4c-6.8 6.7-15.1 15.9-17.7 26.2-1.3 5.2-1.2 10.7 1.2 16.3 2.4 5.6 7.2 11.3 15.2 17.1 18.6 13.5 35.9 14.2 49.3 14.7q1.8 0.1 3.6 0.1c6.9 0.4 12.6 1 16.7 4.1 4 3.1 6.3 8.6 6.4 18.4h-0.6c-0.1-9.8-2.4-15.1-6.2-18-3.9-2.9-9.4-3.6-16.3-3.9q-1.8-0.1-3.6-0.2c-13.4-0.5-30.9-1.2-49.7-14.7-8.1-5.9-12.9-11.7-15.3-17.5-2.5-5.7-2.6-11.2-1.3-16.5zm10.7-25.1c-6.7 6.7-15.1 15.9-17.8 26.4-1.3 5.3-1.2 10.9 1.3 16.6 2.4 5.7 7.2 11.6 15.3 17.4 18.8 13.6 36.3 14.3 49.7 14.8q1.8 0.1 3.6 0.1c6.9 0.4 12.4 1 16.3 3.9 3.8 3 6.1 8.2 6.2 18.1h0.6c-0.1-9.9-2.4-15.4-6.4-18.5-4.1-3.1-9.8-3.7-16.7-4q-1.8-0.1-3.6-0.2c-13.4-0.5-30.7-1.2-49.3-14.6-8-5.8-12.8-11.6-15.2-17.2-2.4-5.6-2.5-11.1-1.2-16.2 2.6-10.4 10.9-19.5 17.7-26.3zm-24.9 28c2.6-10.5 11-19.8 17.8-26.5l0.4 0.4c-6.7 6.7-15 15.9-17.6 26.2-1.4 5.2-1.2 10.6 1.2 16.2 2.4 5.6 7.1 11.4 15.1 17.2 18.6 13.5 35.9 14.1 49.3 14.7q1.9 0 3.7 0.1c6.9 0.3 12.6 1 16.6 4 4.1 3.1 6.3 8.6 6.5 18.5h-0.6c-0.1-9.8-2.4-15.1-6.2-18-3.9-3-9.4-3.6-16.3-3.9q-1.8-0.1-3.7-0.2c-13.4-0.5-30.8-1.2-49.6-14.8-8.1-5.8-12.9-11.7-15.4-17.4-2.4-5.7-2.5-11.3-1.2-16.5zm10.8-24.9c-6.7 6.7-15.1 16-17.8 26.5-1.3 5.2-1.2 10.8 1.3 16.5 2.4 5.7 7.3 11.6 15.3 17.4 18.8 13.6 36.3 14.3 49.7 14.8q1.8 0.1 3.6 0.2c6.9 0.3 12.5 0.9 16.3 3.9 3.8 2.9 6.1 8.2 6.2 18h0.6c-0.1-9.9-2.4-15.4-6.4-18.5-4.1-3-9.8-3.7-16.7-4q-1.8-0.1-3.6-0.1c-13.4-0.6-30.7-1.2-49.3-14.7-8-5.8-12.8-11.6-15.2-17.2-2.4-5.6-2.5-11-1.2-16.2 2.6-10.3 10.9-19.5 17.7-26.2zm-24.7 28.3c2.7-10.5 11.1-19.7 17.8-26.5l0.5 0.4c-6.8 6.7-15.1 15.9-17.7 26.2-1.3 5.2-1.2 10.7 1.2 16.3 2.4 5.6 7.2 11.3 15.1 17.1 18.7 13.5 36 14.2 49.4 14.7q1.8 0.1 3.6 0.1c6.9 0.4 12.6 1 16.7 4.1 4 3.1 6.3 8.6 6.4 18.4h-0.6c-0.1-9.8-2.4-15.1-6.2-18-3.9-2.9-9.4-3.6-16.3-3.9q-1.8-0.1-3.6-0.2c-13.5-0.5-30.9-1.2-49.7-14.7-8.1-5.9-12.9-11.7-15.4-17.5-2.4-5.7-2.5-11.2-1.2-16.5zm11.1-24.4c-6.7 6.8-15.1 16-17.8 26.5-1.3 5.3-1.2 10.8 1.3 16.6 2.4 5.7 7.2 11.5 15.3 17.4 18.8 13.5 36.2 14.2 49.7 14.7q1.8 0.1 3.6 0.2c6.9 0.3 12.4 1 16.3 3.9 3.8 2.9 6.1 8.2 6.2 18h0.6c-0.1-9.8-2.4-15.3-6.4-18.4-4.1-3.1-9.8-3.7-16.7-4.1q-1.8 0-3.6-0.1c-13.4-0.5-30.7-1.2-49.4-14.7-7.9-5.8-12.7-11.5-15.1-17.1-2.4-5.6-2.5-11.1-1.2-16.2 2.6-10.4 10.9-19.5 17.7-26.3z"/>
				<path id="Layer" fill-rule="evenodd" class="s3" d="m21.1 25v-5.2l3.4 5.2h1.3v-7.3h-1.3v5.2l-3.4-5.2h-1.3v7.3zm8.4 0.1c1.2 0 2.1-0.6 2.4-1.7h-1.2c-0.1 0.5-0.6 0.7-1.2 0.7q-1.2 0-1.4-1.3h3.7v-0.4c0-1.5-0.9-2.5-2.4-2.5-1.4 0-2.4 1.1-2.4 2.6 0 1.6 1 2.6 2.5 2.6zm-0.1-4.2c0.8 0 1.2 0.5 1.2 1.1h-2.5q0.2-1.1 1.3-1.1zm4.3 4.1h1.2l0.7-2.1c0.2-0.8 0.3-1.2 0.3-1.4q0.1 0.4 0.4 1.4l0.7 2.1h1.1l1.7-4.9h-1.3l-0.6 2.1c-0.1 0.3-0.3 0.9-0.4 1.3 0-0.4-0.2-1.1-0.3-1.3l-0.6-2.1h-1.3l-0.7 2.1c-0.1 0.5-0.2 0.8-0.3 1.3q-0.1-0.7-0.3-1.3l-0.6-2.1h-1.3zm10.4 0l0.6-1.7h2.7l0.6 1.7h1.3l-2.6-7.3h-1.3l-2.7 7.3zm1.8-5.2c0.1-0.2 0.2-0.4 0.2-0.5 0 0.1 0.1 0.3 0.2 0.5l0.8 2.4h-2zm5.4 5.1v-7.4h-1.2v7.4zm2.4 0l0.1-0.8c0.3 0.6 0.9 0.9 1.7 0.9 1.4 0 2.3-1 2.3-2.5 0-1.6-0.8-2.7-2.2-2.7-0.8 0-1.4 0.4-1.8 0.9v-3.2h-1.2v7.4zm0.1-2.5c0-0.9 0.6-1.5 1.4-1.5 0.9 0 1.4 0.6 1.4 1.5 0 0.9-0.5 1.5-1.4 1.5-0.8 0-1.4-0.6-1.4-1.5zm8.2-2.4v2.6q0 1.4-1.1 1.4c-0.7 0-1.1-0.4-1.1-1.4v-2.6h-1.2v3.1c0 1.2 0.7 1.9 1.8 1.9 0.7 0 1.3-0.3 1.6-0.7l0.1 0.6h1.1v-4.9zm3.7 4.9v-2.8c0-0.8 0.5-1.2 1.1-1.2 0.6 0 0.9 0.4 0.9 1.1v2.9h1.2v-2.8c0-0.8 0.5-1.2 1.1-1.2 0.6 0 0.9 0.4 0.9 1.1v2.9h1.3v-3.2c0-1.2-0.7-1.9-1.9-1.9-0.8 0-1.3 0.4-1.6 1-0.2-0.6-0.8-1-1.5-1-0.7 0-1.2 0.3-1.5 0.8l-0.1-0.6h-1.1v4.9z"/>
				<path id="Gurnazar" class="s4" aria-label="Gurnazar"  d="m24.2 103.1q-1.2 0-2.1-0.6-0.8-0.6-1.2-1.6-0.4-1-0.4-2.1 0-1.1 0.4-2.1 0.5-1 1.3-1.6 0.9-0.7 2.1-0.7 1.5 0 2.4 0.8 0.9 0.8 1.2 2.1h-1.7q-0.2-0.7-0.7-1-0.4-0.4-1.2-0.4-1 0-1.5 0.8-0.6 0.8-0.6 2.1 0 1.4 0.6 2.2 0.6 0.8 1.6 0.8 0.9 0 1.4-0.6 0.5-0.6 0.5-1.3v-0.2h-1.7v-1.2h3.4v4.5h-1.3v-1.2h-0.1q-0.2 0.3-0.4 0.5-0.1 0.2-0.7 0.5-0.5 0.3-1.3 0.3zm10.8-6.4v6.3h-1.6v-1h-0.1q-0.2 0.5-0.7 0.8-0.5 0.3-1.1 0.3-1.2 0-1.7-0.8-0.5-0.8-0.5-1.8v-3.8h1.6v3.6q0 0.6 0.3 1 0.4 0.4 0.9 0.4 0.7 0 1-0.4 0.3-0.4 0.3-1v-3.6zm1.3 6.3v-6.3h1.7v1h0.1q0.1-0.4 0.6-0.7 0.4-0.3 1-0.3 0.3 0 0.5 0l-0.1 1.5q-0.3 0-0.6 0-0.8 0-1.1 0.3-0.4 0.4-0.4 1.3v3.2zm4.8 0v-6.3h1.7v0.9h0.1q0.2-0.4 0.7-0.8 0.4-0.3 1.1-0.3 1.3 0 1.8 0.8 0.5 0.8 0.5 1.8v3.9h-1.7v-3.6q0-0.7-0.3-1.1-0.3-0.4-0.9-0.4-0.7 0-1 0.4-0.3 0.4-0.3 1.1v3.6zm9.5 0.1q-1.2 0-1.9-0.9-0.6-0.9-0.6-2.4 0-1.5 0.6-2.4 0.7-0.9 1.9-0.9 0.8 0 1.2 0.4 0.5 0.3 0.7 0.7h0.1v-0.9h1.7v6.3h-1.7v-1.1h-0.1q-0.2 0.5-0.7 0.8-0.4 0.4-1.2 0.4zm0.6-1.3q0.7 0 1-0.6 0.4-0.6 0.4-1.4 0-0.8-0.4-1.4-0.3-0.5-1-0.5-0.8 0-1.1 0.5-0.4 0.6-0.4 1.4 0 0.8 0.4 1.4 0.3 0.6 1.1 0.6zm4.4 1.2v-1.3l3.1-3.7v-0.1h-2.9v-1.3h4.7v1.3l-3.1 3.8h3.1v1.3zm8.2 0.1q-1.2 0-1.8-0.9-0.7-0.9-0.7-2.4 0-1.5 0.7-2.4 0.6-0.9 1.8-0.9 0.8 0 1.3 0.4 0.5 0.3 0.7 0.7v-0.9h1.7v6.3h-1.7v-1.1q-0.3 0.5-0.7 0.8-0.5 0.4-1.3 0.4zm0.6-1.3q0.7 0 1.1-0.6 0.3-0.6 0.3-1.4 0-0.8-0.3-1.4-0.4-0.5-1.1-0.5-0.7 0-1 0.5-0.4 0.6-0.4 1.4 0 0.8 0.4 1.4 0.3 0.6 1 0.6zm4.6 1.2v-6.3h1.7v1q0.2-0.4 0.6-0.7 0.4-0.3 1.1-0.3 0.3 0 0.4 0v1.5q-0.3 0-0.7 0-0.7 0-1.1 0.3-0.3 0.4-0.3 1.3v3.2z"/>
				<path id="Dill Tu Jaan  Tu" class="s4" aria-label="Dill Tu Jaan 
Tu"  d="m18.1 54v-13.3h5.2q1.7 0 3.1 0.8 1.3 0.8 2.1 2.3 0.7 1.5 0.7 3.5 0 2.1-0.7 3.6-0.8 1.5-2.2 2.3-1.3 0.8-3.1 0.8zm2.6-2.4h2.1q1.7 0 2.6-1 1-1 1-3.3 0-2.3-1-3.3-0.9-1-2.6-1h-2.1zm10.6 2.4v-10h2.6v10zm1.3-11.8q-0.6 0-1-0.4-0.4-0.4-0.4-1 0-0.7 0.4-1.1 0.4-0.4 1-0.4 0.7 0 1.1 0.4 0.4 0.5 0.4 1.1 0 0.6-0.4 1-0.4 0.4-1.1 0.4zm7.2 11.9q-1.4 0-2.1-0.4-0.7-0.5-0.9-1.1-0.1-0.7-0.1-1.6v-11.3h2.6v10.7q0 0.7 0.1 1 0.1 0.4 0.4 0.6 0.3 0.2 1 0.2 0.2 0 0.5-0.1v1.9q-1 0.1-1.5 0.1zm6.5 0q-1.5 0-2.1-0.4-0.7-0.5-0.9-1.1-0.1-0.7-0.1-1.6v-11.3h2.6v10.7q0 0.7 0.1 1 0 0.4 0.3 0.6 0.4 0.2 1 0.2 0.3 0 0.6-0.1v1.9q-1 0.1-1.5 0.1zm17.1-13.4v2.3h-3.7v11h-2.6v-11h-3.6v-2.3zm9.6 3.3v10h-2.6v-1.6h-0.1q-0.4 0.7-1.1 1.3-0.7 0.5-1.8 0.5-1.9 0-2.7-1.3-0.8-1.2-0.8-2.8v-6.1h2.6v5.6q0 1.1 0.5 1.8 0.5 0.6 1.4 0.6 1 0 1.5-0.7 0.5-0.6 0.5-1.7v-5.6zm7.8 10.1q-1 0-1.6-0.2v-1.9q0.3 0.1 0.9 0.1 0.6 0 0.9-0.2 0.3-0.3 0.4-0.6 0.1-0.4 0.1-0.9v-9.7h2.6v10.4q0 3-3.3 3zm9.2 0q-1.9 0-2.9-1.4-1.1-1.4-1.1-3.7 0-2.4 1.1-3.8 1-1.5 2.9-1.5 1.3 0 2 0.6 0.8 0.6 1.1 1.2h0.1v-1.5h2.7v10h-2.7v-1.7h-0.1q-0.4 0.7-1.1 1.3-0.7 0.5-2 0.5zm1-2.1q1.1 0 1.7-0.9 0.5-0.9 0.5-2.2 0-1.3-0.5-2.1-0.6-0.9-1.7-0.9-1.2 0-1.7 0.9-0.6 0.8-0.6 2.1 0 1.3 0.6 2.2 0.5 0.9 1.7 0.9zm10.8 2.1q-1.9 0-2.9-1.4-1.1-1.4-1.1-3.7 0-2.4 1.1-3.8 1-1.5 2.9-1.5 1.3 0 2 0.6 0.7 0.6 1 1.2h0.2v-1.5h2.6v10h-2.6v-1.7h-0.2q-0.3 0.7-1 1.3-0.7 0.5-2 0.5zm0.9-2.1q1.2 0 1.7-0.9 0.6-0.9 0.6-2.2 0-1.3-0.6-2.1-0.5-0.9-1.7-0.9-1.1 0-1.7 0.9-0.5 0.8-0.5 2.1 0 1.3 0.5 2.2 0.6 0.9 1.7 0.9zm7.2 2v-10h2.7v1.5h0.1q0.4-0.7 1.1-1.3 0.8-0.5 1.9-0.5 1.9 0 2.7 1.3 0.9 1.2 0.9 2.8v6.2h-2.7v-5.7q0-1.1-0.5-1.8-0.5-0.6-1.5-0.6-1 0-1.5 0.7-0.5 0.6-0.5 1.7v5.7zm-82.3 9.7v2.3h-3.6v11h-2.7v-11h-3.6v-2.3zm9.7 3.3v10h-2.7v-1.6h-0.1q-0.4 0.7-1.1 1.3-0.7 0.5-1.8 0.5-1.9 0-2.7-1.3-0.8-1.2-0.8-2.8v-6.1h2.7v5.6q0 1.1 0.5 1.8 0.5 0.6 1.4 0.6 1 0 1.4-0.7 0.5-0.6 0.5-1.7v-5.6z"/>
			</g>
		</g>
	</g>
</svg>